PathFileType	4	(X/Y/Z)	C:/Users/beibeiliu/ov580/test_trc/User2\sequence.11_training_dense_right.trc
DataRate	CameraRate	NumFrames	NumMarkers	Units	OrigDataRate	OrigDataStartFrame	OrigNumFrames
120	120	8	19	mm	120	1	76
Frame#	Time	ThumbCMC			ThumbMCP			ThumbIP			ThumbTip			IndexMCP			IndexPIP			IndexTip			MiddleMCP			MiddlePIP			MiddleTip			RingMCP			RingPIP			RingTip			PinkyMCP			PinkyPIP			PinkyTip			BackHand1			BackHand2			BackHand3	
		X0	Y0	Z0	X1	Y1	Z1	X2	Y2	Z2	X3	Y3	Z3	X4	Y4	Z4	X5	Y5	Z5	X6	Y6	Z6	X7	Y7	Z7	X8	Y8	Z8	X9	Y9	Z9	X10	Y10	Z10	X11	Y11	Z11	X12	Y12	Z12	X13	Y13	Z13	X14	Y14	Z14	X15	Y15	Z15	X16	Y16	Z16	X17	Y17	Z17	X18	Y18	Z18	
0	0	82.8271	67.8126	-10.7961	44.1694	70.5707	-27.4225	16.0033	63.7712	-49.4499	-1.83438	54.4061	-64.6263	81.7975	58.6539	-93.4113	57.1028	57.3581	-113.478	38.1273	58.134	-128.531	66.2086	35.9604	-88.9208	29.602	39.0156	-83.824	5.48073	34.0903	-53.9161	72.5408	15.7532	-93.1593	47.9039	16.5266	-109.336	20.1476	17.3741	-121.952	85.2415	-7.6043	-76.959	79.2425	-15.9858	-100.096	79.4476	-23.9199	-119.696	111.929	12.9389	-41.7886	125.775	13.765	-9.39683	120.269	48.3597	-25.5196	
1	0.00833333	92.2604	74.4299	-16.6098	58.9992	83.8557	-24.5374	26.188	86.4384	-45.8118	3.44709	86.0381	-55.8284	80.7055	56.5916	-92.0763	56.7334	62.7561	-112.26	30.8718	63.7323	-124.322	64.7878	43.1076	-88.3559	26.777	58.2208	-82.5317	12.6975	64.2954	-47.5752	58.4554	21.0631	-88.5377	34.1852	20.8404	-99.343	6.86874	36.4113	-110.667	64.0136	-3.18447	-67.1284	52.4797	-12.2992	-91.0363	46.4976	-16.973	-113.44	99.1145	9.66394	-37.7125	115.448	8.22114	-7.40066	121.223	41.0444	-30.6209	
2	0.0166667	106.668	76.6394	-16.0573	72.4629	92.883	-28.8081	41.9383	105.589	-46.0149	19.3443	106.05	-55.6409	78.7697	53.9538	-92.028	59.5319	64.9946	-109.556	32.9629	71.8301	-119.615	57.302	46.4359	-90.2233	30.6785	70.9612	-84.7348	26.7336	86.3165	-47.5695	47.0007	25.2037	-80.9586	26.5433	36.5783	-93.4609	1.68123	55.3921	-102.235	48.796	4.82173	-59.831	32.3225	-0.89005	-78.0025	23.4567	-6.08326	-98.1116	86.9114	9.30754	-34.4203	103.619	3.42254	-6.67854	118.867	31.2831	-30.3409	
3	0.025	118.124	73.27	-24.3585	92.5414	98.3582	-35.3679	62.0515	112.377	-55.6681	39.9752	120.93	-65.0241	84.1793	50.5083	-93.1731	61.261	65.5081	-113.085	38.4511	76.2541	-121.657	57.3175	44.8312	-87.9619	37.8007	78.6023	-84.9818	44.8678	95.5754	-51.594	44.6153	33.028	-80.216	23.2435	48.8023	-93.6295	8.14567	72.1023	-103.025	42.3345	15.7934	-52.5856	25.4889	12.5746	-69.6258	9.97087	4.42166	-92.2865	83.6244	12.3739	-32.049	98.1623	7.64294	-0.275014	118.392	27.6006	-34.3859	
4	0.0333333	129.647	66.1402	-31.5623	107.111	91.4395	-45.7906	81.4861	107.786	-68.2263	60.0701	117.449	-80.2718	89.3836	40.4136	-97.9404	75.3043	53.3995	-117.709	52.6529	68.6317	-128.712	71.5921	40.4646	-91.1205	55.1452	78.1465	-91.7627	65.5701	95.2793	-61.1504	54.1514	30.6478	-78.3748	35.3747	49.1829	-100.305	20.8511	72.2048	-113.756	45.9027	19.1427	-49.8203	28.0909	12.3749	-74.0839	13.4282	7.10342	-93.2944	86.0151	12.2799	-27.5254	96.924	5.81151	2.42186	119.486	18.653	-28.3415	
5	0.0416667	135.691	57.2	-35.1548	114.392	79.28	-52.6161	93.3773	94.1006	-74.8716	74.7203	103.593	-91.0855	103.802	27.3943	-101.044	83.4475	37.9995	-121.505	69.5179	54.7181	-142.394	79.5843	28.2098	-93.8347	65.1024	63.6453	-99.316	78.5643	83.2647	-68.8968	63.7916	19.7327	-86.4295	46.0705	32.0726	-105.087	38.1988	54.8384	-122.912	52.2217	8.63041	-56.05	41.2896	3.1606	-76.5264	24.3823	-7.39036	-99.064	86.812	5.04832	-29.1898	101.723	3.57781	-0.903642	124.33	10.7561	-31.3987	
6	0.05	141.315	47.9327	-36.6939	124.46	70.3904	-61.1436	101.916	81.3012	-89.7407	85.1944	89.8221	-104.549	114.694	12.1444	-102.966	100.833	22.0779	-129.057	80.4754	34.1111	-144.878	93.4791	14.0156	-99.9232	79.3278	48.2632	-107.193	89.9223	68.1874	-74.1876	72.1066	2.28551	-89.224	58.0232	13.5234	-111.526	48.5506	33.6692	-131.471	65.8142	-1.9952	-58.7799	49.5331	-13.9055	-81.6326	39.0836	-24.0819	-105.24	99.4537	-3.83647	-29.4461	110.774	-1.35208	-0.463117	134.445	3.71431	-31.491	
7	0.0583333	150.618	44.1371	-37.2885	130.818	60.9071	-67.2103	109.78	68.0235	-96.0688	92.6129	72.7379	-115.458	129.435	0.0341182	-106.466	111.162	8.85037	-131.595	95.311	19.816	-152.813	104.315	0.823104	-103.822	91.2643	33.5648	-113.306	98.6594	54.691	-77.1679	84.9794	-11.5493	-93.3283	71.3914	-2.96997	-117.945	66.3861	15.3997	-139.853	78.1852	-14.0054	-61.2479	68.4412	-27.0822	-83.8938	57.7283	-41.1961	-106.96	109.208	-13.7327	-35.4555	118.673	-6.99114	-0.030994	146.963	-1.52062	-29.7738	
